# xmcd CD database file
#
# Track frame offsets:
#	150
#	15720
#	30317
#	50560
#	64375
#	78390
#	90212
#	125627
#	147775
#
# Disc length: 2255 seconds
#
# Revision: 0
# Processed by: cddbd v1.5.2PL0 Copyright (c) Steve Scherf et al.
# Submitted via: CDex 1.51
#
DISCID=6e08cd09
DTITLE=Django Reinhardt - The Music Of Django Reinhardt
DYEAR=1994
DGENRE=Jazz
TTITLE0=Between The Devil And The Deep Blue Sea
TTITLE1=Porto Cabello
TTITLE2=Melodie Au Crepascule
TTITLE3=Djangology
TTITLE4=Vamp
TTITLE5=Micro
TTITLE6=Hunusuckle Rose
TTITLE7=Sweet Chorus
TTITLE8=Nuits De St.Germain Des Pres
EXTD=YEAR: 1994
EXTT0=
EXTT1=
EXTT2=
EXTT3=
EXTT4=
EXTT5=
EXTT6=
EXTT7=
EXTT8=
PLAYORDER=
